# xmcd
#
# Track frame offsets: 
#        150
#        18679
#        33570
#        47991
#        64560
#        78481
#        96744
#        110982
#        121325
#        141743
#        157104
#        170620
#        180971
#
# Disc length: 2657 seconds
#
# Revision: 0
# Processed by: cddbd v1.5.2PL0 Copyright (c) Steve Scherf et al.
# Submitted via: ExactAudioCopy v0.95a5
#
DISCID=c40a5f0d
DTITLE=The Dorados - Fishin' Train
DYEAR=2001
DGENRE=Country-Blues
TTITLE0=Fishin' Train
TTITLE1=Hey Bubba! (She Fishes Better Than You)
TTITLE2=Headin' Down to Baja
TTITLE3=Fishin' Shoes
TTITLE4=Nothin' Fancy
TTITLE5=Waitin' on a Cat
TTITLE6=Middle of the Week
TTITLE7=Fishin' off the Railroad Track
TTITLE8=High Sierra Hideaway
TTITLE9=Bottom of the Lake
TTITLE10=Homewrecker Blues
TTITLE11=Too Much Beer Not Enough Bait
TTITLE12=Everyday Heroes
EXTD=
EXTT0=
EXTT1=
EXTT2=
EXTT3=
EXTT4=
EXTT5=
EXTT6=
EXTT7=
EXTT8=
EXTT9=
EXTT10=
EXTT11=
EXTT12=
PLAYORDER=
